<!DOCTYPE svg PUBLIC "-//W3C//DTD SVG 1.1//EN" "http://www.w3.org/Graphics/SVG/1.1/DTD/svg11.dtd">
<!-- Uploaded to: SVG Repo, www.svgrepo.com, Transformed by: SVG Repo Mixer Tools -->
<svg fill="#000000" width="800px" height="800px" viewBox="0 0 24 24" id="chat-alt-3" data-name="Flat Color" xmlns="http://www.w3.org/2000/svg" class="icon flat-color">
<g id="SVGRepo_bgCarrier" stroke-width="0"/>
<g id="SVGRepo_tracerCarrier" stroke-linecap="round" stroke-linejoin="round"/>
<g id="SVGRepo_iconCarrier">
<path id="primary" d="M19.91,16.51A8.45,8.45,0,0,0,22,11c0-5-4.49-9-10-9S2,6,2,11s4.49,9,10,9a10.9,10.9,0,0,0,3-.41l4.59,2.3A.91.91,0,0,0,20,22a1,1,0,0,0,.62-.22,1,1,0,0,0,.35-1Z" style="fill: #191735;"/>
<path id="secondary" d="M9.5,11A1.5,1.5,0,1,1,8,9.5,1.5,1.5,0,0,1,9.5,11ZM12,9.5A1.5,1.5,0,1,0,13.5,11,1.5,1.5,0,0,0,12,9.5Zm4,0A1.5,1.5,0,1,0,17.5,11,1.5,1.5,0,0,0,16,9.5Z" style="fill: #00ddff;"/>
</g>
</svg>